# xmcd
#
# Track frame offsets: 
#        150
#        11479
#        22830
#        32760
#        44452
#        55976
#        68636
#        79341
#        90799
#        101165
#
# Disc length: 1501 seconds
#
# Revision: 0
# Processed by: cddbd v1.4PL0 Copyright (c) Steve Scherf et al.
# Submitted via: ExactAudioCopy v0.90b2
#
DISCID=7005db0a
DTITLE=Kitty Wells - Greatest Hits (Front Row Entertainment)
DYEAR=1900
DGENRE=Country
TTITLE0=It Wasn't God Who Made Honky Tonk Angels
TTITLE1=Heartbreak, U.S.A.
TTITLE2=I Can't Stop Loving You
TTITLE3=Amigo's Guitar
TTITLE4=Left To Right
TTITLE5=Makin' Believe
TTITLE6=Mommy For A Day
TTITLE7=Password
TTITLE8=Searching (For Someone Like You)
TTITLE9=You Don't Hear
EXTD=
EXTT0=
EXTT1=
EXTT2=
EXTT3=
EXTT4=
EXTT5=
EXTT6=
EXTT7=
EXTT8=
EXTT9=
PLAYORDER=
